<svg xmlns="http://www.w3.org/2000/svg" xmlns:xlink="http://www.w3.org/1999/xlink" width="256" height="256" xmlns:v="https://vecta.io/nano"><g fill="#0078d7" transform="translate(-2092 -232)"><use xlink:href="#A" transform="matrix(2.66667 0 0 2.66667 2092 292.961)"/><use xlink:href="#B" transform="matrix(2.66667 0 0 2.66667 2285.41 278.608)"/><use xlink:href="#C" transform="matrix(2.66667 0 0 2.66667 2092 232)"/><use xlink:href="#D" transform="matrix(2.66667 0 0 2.66667 2117.94 404.124)"/></g><defs><path id="A" d="M9.727 0L0 12.705V39.88l9.727 1.806V0z"/><path id="B" d="M0 4.283v74.201l23.471-19.352V0L0 4.283z"/><path id="C" d="M0 35.565l72.53-13.804L42.719 0v9.962L9.727 22.86 0 35.565z"/><path id="D" d="M0 0l86.273 12.064-23.47 19.352-36.179-12.088v12.126L0 0z"/></defs></svg>