<svg width="256" height="288" viewBox="0 0 256 288" xmlns="http://www.w3.org/2000/svg" xmlns:xlink="http://www.w3.org/1999/xlink" preserveAspectRatio="xMidYMid"><g><path d="M255.569 84.452376C255.567 79.622376 254.534 75.354376 252.445 71.691376 250.393 68.089376 247.32 65.070376 243.198 62.683376 209.173 43.064376 175.115 23.505376 141.101 3.86637605 131.931-1.42762395 123.04-1.23462395 113.938 4.13537605 100.395 12.122376 32.59 50.969376 12.385 62.672376 4.064 67.489376.015 74.861376.013 84.443376.0 123.898376.013 163.352376.0 202.808376.0 207.532376.991 211.717376 2.988 215.325376 5.041 219.036376 8.157 222.138376 12.374 224.579376 32.58 236.282376 100.394 275.126376 113.934 283.115376 123.04 288.488376 131.931 288.680376 141.104 283.384376 175.119 263.744376 209.179 244.186376 243.209 224.567376 247.426 222.127376 250.542 219.023376 252.595 215.315376 254.589 211.707376 255.582 207.522376 255.582 202.797376 255.582 202.797376 255.582 123.908376 255.569 84.452376" fill="#a179dc" fill-rule="nonzero"/><path d="M128.182 143.241376 2.988 215.325376C5.041 219.036376 8.157 222.138376 12.374 224.579376 32.58 236.282376 100.394 275.126376 113.934 283.115376 123.04 288.488376 131.931 288.680376 141.104 283.384376 175.119 263.744376 209.179 244.186376 243.209 224.567376 247.426 222.127376 250.542 219.023376 252.595 215.315376L128.182 143.241376" fill="#280068" fill-rule="nonzero"/><path d="M255.569 84.452376C255.567 79.622376 254.534 75.354376 252.445 71.691376l-124.263 71.55L252.595 215.315376C254.589 211.707376 255.58 207.522376 255.582 202.797376 255.582 202.797376 255.582 123.908376 255.569 84.452376" fill="#390091" fill-rule="nonzero"/><path d="M201.892326 116.294008V129.767692H215.36601V116.294008H222.102852V129.767692H235.576537V136.504534H222.102852V149.978218H235.576537V156.71506H222.102852V170.188744H215.36601V156.71506H201.892326V170.188744H195.155484V156.71506H181.6818V149.978218H195.155484V136.504534H181.6818V129.767692H195.155484V116.294008H201.892326zM215.36601 136.504534H201.892326V149.978218H215.36601V136.504534z" fill="#fff"/><path d="M128.456752 48.625876C163.600523 48.625876 194.283885 67.7121741 210.718562 96.0819435L210.558192 95.808876 169.209615 119.617159C161.062959 105.823554 146.128136 96.5150717 128.996383 96.3233722L128.456752 96.3203544C102.331178 96.3203544 81.1506705 117.499743 81.1506705 143.625316 81.1506705 152.168931 83.4284453 160.17752 87.3896469 167.094792 95.543745 181.330045 110.872554 190.931398 128.456752 190.931398 146.149522 190.931398 161.565636 181.208041 169.67832 166.820563L169.481192 167.165876 210.767678 191.083913C194.51328 219.21347 164.25027 238.240861 129.514977 238.620102L128.456752 238.625876C93.2021701 238.625876 62.4315028 219.422052 46.0382398 190.902296 38.0352471 176.979327 33.4561922 160.837907 33.4561922 143.625316 33.4561922 91.1592636 75.9884604 48.625876 128.456752 48.625876z" fill="#fff" fill-rule="nonzero"/></g></svg>