<svg id="Layer_1" xmlns="http://www.w3.org/2000/svg" xmlns:xlink="http://www.w3.org/1999/xlink" width="512" height="512" viewBox="0 0 512 512" enable-background="new 0 0 512 512"><g><g><g><path d="M108.382.0h23.077v22.8h21.11V0h23.078v69.044H152.57v-23.12h-21.11v23.12h-23.077L108.382.0V0z"/><path d="M205.994 22.896h-20.316V0h63.72v22.896h-20.325v46.148h-23.078L205.994 22.896v0z"/><path d="M259.511.0h24.063l14.802 24.26L313.163.0h24.072v69.044h-22.982V34.822l-15.877 24.549h-.397l-15.888-24.549v34.222h-22.58V0z"/><path d="M348.72.0h23.084v46.222h32.453v22.822H348.72V0z"/></g></g></g><g id="Guides_to_delete"><g><path fill="#e34e26" d="M107.125 470.727 74.012 99.297H437.703L404.549 470.755 255.769 512z"/><path fill="#ef662a" d="M255.857 129.657V480.449L376.164 447.101 404.51 129.657z"/><path fill="#fff" d="M141.761 175.217 154.041 312.978H311.936L306.637 372.066 255.799 385.811 205.057 372.085 201.664 334.146H155.937L162.476 407.282 255.787 433.199 349.219 407.282 361.744 267.429H195.706L191.538 220.777H365.732 365.873L369.953 175.217z"/><g><path fill="#ebebeb" d="M255.857 175.217H141.761L154.041 312.978H255.857V267.429H195.706L191.538 220.777H255.857z"/><path fill="#ebebeb" d="M255.857 385.791 255.799 385.811 205.057 372.085 201.664 334.146H155.937L162.476 407.282 255.787 433.199 255.857 433.179z"/></g></g></g></svg>