<svg width="256" height="255" viewBox="0 0 256 255" xmlns="http://www.w3.org/2000/svg" xmlns:xlink="http://www.w3.org/1999/xlink" preserveAspectRatio="xMidYMid"><g><path d="M150.735739.0C148.8846.0 147.165687.396686115 145.57898.925572289 148.950692 3.17338764 150.801841 6.14846547 151.727441 9.52018849 151.793738 9.98296798 151.925779 10.3135464 151.991974 10.7763105 152.058271 11.1729967 152.124118 11.5696685 152.124118 11.9663525 152.388692 17.7842283 150.603503 18.5114632 149.34739 21.9493092 147.430118 26.3788568 147.959 31.1389429 150.272949 34.973472 150.471297 35.4362392 150.735739 35.9651387 151.066323 36.4279315 148.554016 19.7014919 162.503769 17.1892201 165.082118 11.9663525 165.280456 7.40458752 161.512066 4.36341631 158.53702 2.24781739 155.69419.528900497 153.115769.0 150.735739.0zM171.759482 3.76840811C171.494928 5.28898963 171.693287 4.89231579 171.627369 5.68567267 171.561174 6.21455987 171.561174 6.87570033 171.495245 7.40458752 171.363122 7.93348904 171.230671 8.46237624 171.032435 8.99130129 170.900322 9.52018849 170.701881 10.049089 170.503553 10.5779752 170.238979 11.1069012 170.040763 11.5696685 169.776312 12.0985679 169.577984 12.3631266 169.445758 12.6274551 169.24742 12.8919248 169.115296 13.0902602 168.982866 13.2885966 168.850753 13.486932 168.520199 13.9497371 168.189615 14.4125043 167.859071 14.809175 167.462374 15.2058612 167.13182 15.6686274 166.669009 15.999217c0 .06619469999999872.0.06619469999999872.0.06619469999999872C166.272343 16.3959758 165.875666 16.7926476 165.412897 17.1231994 164.024527 18.1809861 162.437851 18.9743419 160.983358 19.9660342 160.520599 20.296586 160.057779 20.5610567 159.661122 20.9577265 159.198343 21.2882783 158.801656 21.6188301 158.404999 22.0155141 157.942189 22.4121859 157.611635 22.80887 157.214948 23.2716618 156.884394 23.6683469 156.487728 24.1311161 156.223287 24.5939202 155.892702 25.0566864 155.562158 25.5194802 155.297687 25.9822587 155.033143 26.5111448 154.834907 26.9739499 154.570456 27.5028381 154.372128 28.0317243 154.173769 28.4945314 154.041564 29.0234166 153.843225 29.6184381 153.710999 30.1473386 153.578774 30.6762513 153.512579 30.940808 153.512579 31.2712462 153.446651 31.5357026 153.380354 31.8002603 153.380354 32.0645898 153.314537 32.3290595 153.314537 32.8579457 153.248343 33.4529672 153.248343 33.9818544 153.248343 34.3785385 153.248343 34.7752092 153.314537 35.1718943 153.314537 35.7007825 153.380732 36.2296708 153.512866 36.8246902 153.57906 37.3535764 153.711184 37.8824769 153.84345 38.411403 154.041789 38.9402891 154.174014 39.4691896 154.372332 39.9980768 154.504476 40.3286675 154.702886 40.6592183 154.835142 40.9236491L139.629276 35.0396492C137.050876 34.3124134 134.53863 33.6513108 131.96023 33.0562893 130.571882 32.7257385 129.183533 32.3951631 127.795164 32.064598 123.828405 31.2712544 119.795584 30.6762585 115.762713 30.2795877 115.6306 30.2795877 115.564384 30.2133828 115.432159 30.2133828 111.46539 29.8167121 107.564785 29.6183757 103.598046 29.6183757 100.689082 29.6183757 97.7801182 29.7504898 94.9372865 29.9489275 90.9044271 30.2134852 86.8715616 30.7422833 82.8387298 31.4033859 81.8470355 31.5355134 80.8553432 31.7339756 79.8636479 31.932313 77.814172 32.3289582 75.8308161 32.7917633 73.9135536 33.2545551 72.9218613 33.5191127 71.930167 33.7834556 70.9384737 34.0478874 69.9468122 34.4445571 69.0212429 34.9073643 68.095641 35.304035 67.3684092 35.6345868 66.6411805 35.9651499 65.9139477 36.2957273 65.7818254 36.3619322 65.6493941 36.3619322 65.5833938 36.4278547 64.9222554 36.7584055 64.32724 37.0228363 63.7322543 37.353425 63.5339149 37.4196299 63.4016677 37.4855401 63.2694534 37.5517624 62.5422226 37.8823152 61.8149939 38.278986 61.2199754 38.6095491 60.7571755 38.8078855 60.2944062 39.0723419 59.8977303 39.2706905 59.6993898 39.4028047 59.4349273 39.5352359 59.3027129 39.6012424 58.7076986 39.9317942 58.1126822 40.2623439 57.5837889 40.5929346 56.9887725 40.9234854 56.4598792 41.2540372 55.9970792 41.584589 55.534312 41.9151787 55.071513 42.1796095 54.6748331 42.5101603 54.6085975 42.5763652 54.5427108 42.5763652 54.4764936 42.6422888 54.0798177 42.9068454 53.6170484 43.2372949 53.2203726 43.5678846 53.2203726 43.5678846 53.1541472 43.6340792 53.0882492 43.7000099 52.7576954 43.9645676 52.4271088 44.2288992 52.0965559 44.49333 51.9644347 44.5595349 51.8320013 44.6916654 51.699879 44.7578866 51.3693252 45.0224464 51.0387713 45.3529081 50.7082164 45.6173635 50.6419911 45.7494899 50.509879 45.8156999 50.4436618 45.8819222 50.0469849 46.278594 49.650307 46.6091448 49.2536301 47.0058299 49.1874047 47.0058299 49.1874047 47.0720348 49.1215078 47.137944 48.7248309 47.4685081 48.328155 47.8651809 47.9314781 48.261865 47.8652527 48.3280699 47.8652527 48.3939781 47.7993548 48.3939781 47.4688009 48.7245309 47.138247 49.0551195 46.8076615 49.4517647 46.6755412 49.5838911 46.4771076 49.7163245 46.3448932 49.8484365 46.0143394 50.2451216 45.6176614 50.6417934 45.2209856 51.0384785 45.1547602 51.1705936 45.0226471 51.2368149 44.9564299 51.3690293 44.4275356 51.8979554 43.9647356 52.4268426 43.4358433 52.955742 43.3696179 53.0219469 43.303722 53.0878531 43.2375059 53.1540785 42.1796895 54.2779851 41.0557798 55.4018928 39.8657788 56.3935779 38.6757491 57.4513625 37.4196229 58.4430548 36.1634702 59.3025112 34.841222 60.2281111 33.5850989 61.0214342 32.1967287 61.814788 30.8744805 62.5419983 29.4861114 63.203147 28.0316498 63.7981726 26.6432786 64.3931777 25.1888181 64.9220905 23.7343535 65.3848495 20.9576141 65.9798546 18.1147803 67.1037725 15.6686255 67.302111 15.1397332 67.302111 14.5447168 67.4342445 14.0158235 67.5004392 13.4208102 67.6325625 12.8919168 67.765003 12.3630245 67.8971366 11.8341312 68.0954546 11.3052082 68.2938033 10.7763138 68.4921315 10.2474205 68.6904699 9.71852817 68.9549314 9.18963483 69.2193827 8.72683488 69.5499263 8.19794359 69.8143878 7.73514159 70.1449417 7.27237028 70.4754956 6.80957032 70.8721622 6.41289239 71.2688494 5.95012415 71.5994339 5.48732419 72.0622134 5.09064626 72.4588699 4.69396833 72.9216903 4.29729245 73.318357 3.96673818 73.781116 3.63618422 74.3100083 3.23950659 74.7728185 2.97504427 75.301721 2.64449041 75.764521 2.31393666 76.2934031 2.04947434 76.8222749 1.78491922 77.417321 1.52058223 77.9462031 1.32224285 78.5412287 1.1239045 79.070121.925566048 79.6651261.727227595 80.2601517.59510611 80.7890338.462672683 81.3179363.396673941 81.8468082.396673941 81.9131051.330459836 81.978952.330459836 82.0451568.198337328 82.6402029.198337328 83.4335669.132120563 83.8302541.0659064584 84.2930234.0 84.6896798.0 85.15249.0 85.4170436.0 85.7474747.066214105 86.0119259.13242821 86.4747361.198334464 86.8714028.330769119 87.2681104.462890603 87.6647259.595324236 88.061413.793538485 88.4581002c0 .06619469999999694.0.06619469999999694.0.06619469999999694C.991876836 88.9210025 1.25633906 89.3176589 1.52077007 89.7143358 1.78532508 90.1110127 2.04969348 90.5076896 2.38024734 90.9043768 2.7108011 91.2349306 3.10747903 91.6315768 3.50415543 91.9621512 3.90083325 92.3588281 4.29751139 92.6893819 4.76027963 93.0199358 6.34698828 94.4083152 6.74366519 94.8711151 8.7931472 95.9288895 9.12369799 96.1272382 9.45428561 96.2594639 9.85096252 96.4578023 9.91718788 96.4578023 9.98308482 96.523997 10.0492999 96.523997 10.0492999 96.6561101 10.0492999 96.7223457 10.1155253 96.8545918 10.1817404 97.3834943 10.3138627 97.9123662 10.4460792 98.4412789 10.5782004 99.0362943 10.7766647 99.5652071 10.9750032 100.027976 11.1733416 100.424663 11.3055571 100.82132 11.5038965 101.218017 11.5701117 101.350151 11.6360199 101.482571 11.702235 101.548571 11.9667896 102.077453 12.2311273 102.540284 12.4955581 103.003033 12.8261437 103.465812 13.1566965 103.928592 13.4872494 104.391412 13.8178053 104.788069 14.2144832 105.250858 14.6111591 105.647525 15.007837 106.044212 15.4045149 106.374776 15.8673159 106.771422 15.8673159 106.771422 15.9335413 106.837719 15.9994362 106.837719 16.3961151 107.168304 16.79279 107.498868 17.1894689 107.763278 17.6522382 108.093853 18.1150382 108.358283 18.6439294 108.622755 19.1067304 108.887309 19.6356238 109.151648 20.1645161 109.349996 20.561194 109.548335 21.0239622 109.680571 21.4867642 109.812786 21.5529896 109.879083 21.6188855 109.879083 21.7513199 109.94493 22.0158745 110.011227 22.3463025 110.077033 22.610765 110.143248 22.4124276 113.713309 22.3462094 117.085032 22.8753217 118.275083 23.4703063 119.597319 26.3792611 115.564468 29.288218 110.936612 28.8915421 115.498365 28.6270785 120.853432 29.288218 122.44017 30.0154477 124.09294 33.9821891 118.936181 37.4200362 113.250519 84.2936988 102.40813 127.068465 134.803175 131.564085 180.552928 130.704619 173.412785 121.911675 169.446057 117.878845 170.437759 115.89545 175.330056 112.523727 181.610723 107.102527 185.511359 107.565306 181.147933 107.36706 176.652313 106.441409 172.288877 104.986917 178.371226 102.144076 184.056918 98.2434297 188.949215 91.962756 189.411984 85.682067 186.370805 82.3764353 181.809082 82.1118796 181.610723 82.0458804 181.214056 81.8475419 180.949615 81.6492014 180.486785 81.450866 180.024046 81.3186486 179.561236 81.1203112 179.098467 80.9880958 178.635667 80.9219727 178.172897 80.8557474 177.710087 80.8557474 177.247308 80.8557474 176.718426c0-.33058499999998503.0-.6611289999999883.0-.9916719999999941C80.9219727 175.263923 81.0540858 174.801144 81.1863022 174.338354 81.3184235 173.875585 81.4508558 173.412785 81.6491022 172.949995 81.9136578 172.487236 82.1118715 172.024436 82.442457 171.561667 83.5663647 168.388231 83.5663647 165.809872 81.5168878 164.289298 81.1202099 164.024744 80.723533 163.826488 80.260733 163.628149 79.9961753 163.561954 79.6657156 163.429811 79.4012868 163.363606 79.2029474 163.297411 79.070733 163.231462 78.8723935 163.165257 78.4095925 163.033134 77.9467915 162.900693 77.4840223 162.834703 77.0212223 162.70259 76.5584531 162.636365 76.0956531 162.636365 75.6328828 162.570068 75.1039578 162.504241 74.6411895 162.504241 74.3106367 162.504241 73.9800511 162.570436 73.6494962 162.570436 73.1206049 162.570436 72.657805 162.636733 72.1950337 162.768775 71.7322337 162.835072 71.2694655 162.900888 70.8066655 163.033308 70.3438942 163.165441 69.8810932 163.297871 69.4182933 163.496138 68.955525 163.694467 68.5588461 163.892805 68.0960482 164.091143 67.699402 164.289492 67.302723 164.553913 66.8399241 164.752251 51.4357286 174.801328 60.6253652 198.337338 71.1372204 205.146917 67.1704769 205.874148 63.1376441 206.733645 62.0137344 207.593071 61.947509 207.659265 61.8816131 207.725204 61.8816131 207.725204 64.7244459 209.444107 67.6994961 210.898589 70.8067576 212.154712 75.0379626 213.543081 79.5335943 214.799214 81.5169799 215.328127c0 0 0 .06619499999999334.0.06619499999999334C87.0043069 216.51824 92.5577591 216.914917 98.1773067 216.584363 127.465111 214.534876 151.463911 192.254979 155.827336 162.901092 155.959459 163.496118 156.09189 164.02499 156.224013 164.620026 156.422362 165.810015 156.686782 167.066159 156.818998 168.322292c0 0 0 0 0 .06629699999999161C156.951121 168.983604 157.017336 169.57861 157.083551 170.107502c0 .13212299999997867.0.19833799999997836.0.2645639999999787C157.149848 170.967071 157.215685 171.562096 157.215685 172.090979 157.281879 172.81822 157.347808 173.54544 157.347808 174.272712c0 .33055399999997803.0.6611179999999877.0 1.057783999999998C157.347808 175.661081 157.414003 176.057717 157.414003 176.388301 157.414003 176.784989 157.347808 177.181635 157.347808 177.578312c0 .3305949999999882.0.661137999999994.0.9255689999999959C157.347808 178.966691 157.281511 179.363348 157.281511 179.826137 157.281511 180.09067 157.281511 180.35504 157.215316 180.685604 157.215316 181.148414 157.149122 181.611163 157.149122 182.140065 157.082825 182.338404 157.082825 182.536742 157.082825 182.735091 157.01663 183.263994 156.950701 183.726783 156.884476 184.255686 156.884476 184.454035 156.884476 184.652353 156.818281 184.850711 156.751984 185.511809 156.619953 186.106845 156.553759 186.767942c0 0 0 .06629699999999161.0.06629699999999161V186.900434C156.421635 187.495439 156.289185 188.156557 156.157051 188.751562c0 .06619499999999334.0.1321230000000071.0.19834899999997901C156.024948 189.544906 155.892497 190.139942 155.760395 190.734926 155.760395 190.801223 155.6942 190.933275 155.6942 190.999459 155.562056 191.594495 155.429626 192.1895 155.231431 192.784546c0 .06619499999999334.0.13210300000000075.0.19831800000000044C155.033092 193.643962 154.834743 194.238987 154.702508 194.834003 154.636313 194.900197 154.636313 194.966126 154.636313 194.966126 154.437964 195.627265 154.239646 196.288372 154.041328 196.94949 153.776775 197.610629 153.578539 198.205634 153.314097 198.866762 153.049554 199.52789 152.851287 200.189018 152.586846 200.784013 152.322282 201.445162 152.057933 202.040177 151.793503 202.701275c0 0-.06629699999999161.0-.06629699999999161.0C151.462632 203.29628 151.198272 203.957428 150.867698 204.552454c0 0 0 0 0 0 0 0 0 0 0 0C150.801503 204.750762 150.735595 204.883008 150.66938 205.015203 150.603185 205.0815 150.603185 205.147326 150.537257 205.213562 146.239965 213.874259 139.893144 221.477182 131.959688 227.427315 131.430796 227.757869 130.901883 228.154556 130.373001 228.551213c0 0 0 0 0 0C130.240867 228.683346 130.042416 228.749571 129.910201 228.881766 129.447401 229.21233 128.984621 229.542874 128.45575 229.873469L128.654078 230.270146H128.720272C129.645831 230.138033 130.571411 230.005592 131.49699 229.873469H131.563185C133.282118 229.608915 135.001041 229.278454 136.719975 228.9479 137.182734 228.881603 137.711667 228.749571 138.174426 228.617315 138.50498 228.551018 138.769441 228.485202 139.099995 228.418977 139.562795 228.35268 140.025575 228.220638 140.488385 228.154433 140.885041 228.02231 141.281728 227.956074 141.678395 227.823869 148.289626 226.237151 154.702549 224.055428 160.850959 221.477069 150.339123 235.823438 136.257164 247.39312 119.795185 254.996043 127.398129 254.46714 135.001041 253.211017 142.339513 251.095428 168.982815 243.228013 191.394896 225.311582 204.815706 201.180557 202.105101 216.452536 196.022763 230.997254 187.031491 243.690843 193.444384 239.459613 199.328383 234.567305 204.683491 229.013869 219.49266 213.543582 229.211203 193.908229 232.516793 172.818332 234.764629 183.264096 235.425757 194.040455 234.434065 204.684526 282.167212 138.109348 238.400803 69.0880165 220.087686 50.9071133 220.021389 50.7749971 219.955562 50.7087769 219.955562 50.5765605 219.889265 50.6427551 219.889265 50.6427551 219.889265 50.7086879 219.889265 50.642483 219.889265 50.642483 219.823071 50.5765605 219.823071 51.3699163 219.756876 52.1632354 219.690947 52.9565922 219.492599 54.4771768 219.294281 55.9316476 219.029809 57.3861398 218.699265 58.8406013 218.302578 60.2950424 217.905891 61.7495448 217.443122 63.1378833 216.91425 64.5923551 216.319214 65.9807345 215.724199 67.3029602 215.06307 68.6913293 214.33584 70.0135959 213.608599 71.2697395 212.815255 72.5919754 211.955809 73.7819856 211.096342 75.0381496 210.170763 76.2281497 209.245173 77.3520369 208.253471 78.5420881 207.195706 79.5998931 206.137891 80.657688 205.476783 81.2527034 204.881778 81.7815957 204.220619 82.3104675 203.691737 82.7732777 203.228958 83.1699649 202.700035 83.6327137 201.510025 84.5582931 200.320004 85.4177597 198.997768 86.2111238 197.741625 87.0044571 196.419409 87.797811 195.097153 88.4589494 193.708784 89.1200673 192.320415 89.7150724 190.932066 90.310098 189.543697 90.8389699 188.089235 91.3017698 186.634722 91.698457 185.180271 92.0951134 183.659697 92.4256877 182.205215 92.6901288 180.684651 92.9546824 179.164056 93.0867955 177.709584 93.2190416 176.651779 93.2852362 175.593994 93.3511751 174.536179 93.3511751 173.015584 93.3511751 171.49503 93.2190416 170.040548 93.0866215 168.519974 92.9544982 166.999369 92.7560165 165.544907 92.4254627 164.024323 92.1609091 162.569831 91.7643243 161.115359 91.3015754H161.049164C162.503636 91.1694521 163.958118 91.0370014 165.41261 90.7726627 166.933164 90.5081091 168.387636 90.1776678 169.842128 89.7809602 171.29659 89.3842935 172.751061 88.9214935 174.13942 88.3926115 175.593882 87.8637089 176.982261 87.2026114 178.304518 86.5414526 179.692866 85.8803141 180.94901 85.1531038 182.271246 84.35975 183.527369 83.5002936 184.783512 82.6408475 185.973533 81.7152475 187.163564 80.7896886 188.287451 79.7980167 189.345287 78.7402117 190.469194 77.7484989 191.460866 76.6246015 192.452558 75.5006836 193.44422 74.3106938 194.36981 73.1206631 195.229276 71.9306323 195.36141 71.7322837 195.49384 71.4678631 195.625974 71.2695144 196.287071 70.2117093 196.948179 69.1539144 197.543184 68.0960991 198.270435 66.773853 198.931574 65.4515966 199.526568 64.0632684 200.121594 62.6748992 200.650497 61.2865198 201.113286 59.8320685 201.576056 58.4436891 201.90662 56.9892378 202.237194 55.5347783 202.501758 54.0141855 202.766076 52.5596913 202.898312 51.1052318 203.030435 49.5846533 203.162855 48.0640596 203.162855 46.6096021 203.162855 45.5517888 203.096558 44.4940022 203.030752 43.4362145 202.898619 41.915634 202.700178 40.4611377 202.50185 39.0066772 202.237286 37.4860854 201.906845 36.031628 201.510147 34.5771296 201.047388 33.1887901 200.584578 31.734305 200.055696 30.3459676 199.526763 28.9575902 198.865676 27.5692272 198.204517 26.2469698 197.477286 24.9247257 196.750065 23.6024816 195.956722 22.3463586 195.097265 21.0902355 194.237778 19.9002078 193.312209 18.7101669 192.320548 17.5862582 191.328855 16.4623515 190.27103 15.3384439 189.742148 14.8095546 189.147122 14.2145341 188.552117 13.685648 185.577071 11.3716993 182.469779 9.18997737 179.362517 7.20662045 178.899738 6.94207301 178.503061 6.74382868 178.040261 6.54548 175.858538 5.15713947 173.809061 4.42987903 171.759594 3.76877541L171.759482 3.76840811z" fill="#e0234e"/></g></svg>