<svg width="256" height="256" viewBox="0 0 256 256" xmlns="http://www.w3.org/2000/svg" xmlns:xlink="http://www.w3.org/1999/xlink" preserveAspectRatio="xMidYMid"><g><path fill="#007acc" transform="translate(128.000000, 128.000000) scale(1, -1) translate(-128.000000, -128.000000)" d="M0 128V0H128 256V128 256H128 0z"/><path d="M146.658132 223.436863 146.739401 212.953054H130.079084 113.418767V165.613371 118.273689H101.63464 89.8505126V165.613371 212.953054H73.1901951 56.5298776V223.233689C56.5298776 228.922577 56.6517824 233.676863 56.8143221 233.798768 56.9362269 233.961308 77.2130522 234.042577 101.797179 234.001943L146.536227 233.880038 146.658132 223.436863z" fill="#fff" transform="translate(101.634640, 176.142993) rotate(-180.000000) translate(-101.634640, -176.142993)"/><path d="M206.566631 234.272145C213.068219 232.646748 218.025679 229.761668 222.57679 225.048018 224.933616 222.528653 228.428219 217.936907 228.712663 216.839764 228.793933 216.514684 217.659965 209.037859 210.914568 204.852462 210.670758 204.689922 209.69552 205.74643 208.598377 207.371827 205.306949 212.166748 201.852981 214.239129 196.570441 214.604843 188.809171 215.133097 183.811076 211.069605 183.851711 204.283573 183.851711 202.292462 184.136155 201.114049 184.948854 199.488653 186.65552 195.953414 189.825044 193.840399 199.7806 189.533097 218.106949 181.649922 225.949489 176.448653 230.825679 169.053097 236.270758 160.804208 237.489806 147.638494 233.792028 137.845478 229.728536 127.199129 219.651076 119.966113 205.469489 117.568653 201.080917 116.796589 190.678377 116.918494 185.964727 117.771827 175.684092 119.600399 165.931711 124.679764 159.917743 131.343891 157.560917 133.944526 152.969171 140.730557 153.253616 141.218176 153.37552 141.380716 154.432028 142.030875 155.610441 142.721668 156.748219 143.371827 161.05552 145.850557 165.119012 148.207383L172.473933 152.474049 174.01806 150.198494C176.171711 146.907065 180.885362 142.396589 183.729806 140.893097 191.897425 136.585795 203.112663 137.195319 208.639012 142.15278 210.995838 144.30643 211.971076 146.541351 211.971076 149.83278 211.971076 152.799129 211.605362 154.099446 210.061235 156.334367 208.070123 159.178811 204.006631 161.576272 192.466314 166.574367 179.259965 172.263256 173.571076 175.798494 168.369806 181.406113 165.362822 184.656907 162.518377 189.858176 161.339965 194.206113 160.364727 197.822621 160.120917 206.884208 160.892981 210.541351 163.61552 223.300716 173.245996 232.199764 187.143139 234.841034 191.653616 235.694367 202.137425 235.369287 206.566631 234.272145z" fill="#fff" transform="translate(194.578507, 176.190240) scale(1, -1) translate(-194.578507, -176.190240)"/></g></svg>