<svg width="256" height="228" viewBox="0 0 256 228" xmlns="http://www.w3.org/2000/svg" xmlns:xlink="http://www.w3.org/1999/xlink" preserveAspectRatio="xMidYMid"><g><path d="M73.8663206.0C66.952309.0146617449 60.184271 3.93931348 56.7037125 9.9265042L2.56976851 103.963223C-.856589505 109.966444-.856589505 117.813085 2.56976851 123.816305L56.7037125 217.853023C60.1846366 223.840262 66.952309 227.765965 73.8663206 227.779527H182.133826C189.047838 227.764865 195.815506 223.840262 199.296431 217.853023L253.430366 123.816305C256.856721 117.813085 256.856368 109.966444 253.430366 103.963223L199.296431 9.9265042C195.815506 3.93931348 189.047838.0135621543 182.133826.0H73.8663206V0zM74.8488536 55.0126186C74.9975819 54.9979569 75.1535758 54.9979569 75.3027674 55.0126186H93.9772836C94.8039203 55.0297239 95.6057607 55.5074519 96.018567 56.2249969L127.69764 112.677374C127.857095 112.956484 127.95984 113.267458 127.998827 113.586646 128.037837 113.267385 128.140483 112.956386 128.300014 112.677374L159.903262 56.2249969C160.329167 55.4857038 161.168569 55.0053365 162.020021 55.0126186H180.694546C182.348195 55.0272804 183.586572 57.1101012 182.811656 58.5740505L151.889065 113.889776 182.811656 169.129724C183.659919 170.602081 182.39107 172.781473 180.694546 172.766909H162.020021C161.153689 172.759578 160.309324 172.245978 159.903262 171.478754L128.300014 115.026377C128.140556 114.747267 128.037813 114.436267 127.998827 114.117106 127.959816 114.43634 127.857168 114.74739 127.69764 115.026377L96.018567 171.478754C95.624559 172.224278 94.8184519 172.732966 93.9772836 172.766909H75.3027674C73.6062411 172.78157 72.3377353 170.602081 73.1859985 169.129724L104.10858 113.889776 73.1859985 58.5740505C72.4447465 57.2383669 73.3491119 55.297716 74.8488536 55.0126186v0 0z" fill="#3498db"/></g></svg>